<svg version="1.1" id="Layer_1" xmlns="http://www.w3.org/2000/svg" xmlns:xlink="http://www.w3.org/1999/xlink" x="0px" y="0px"
	 width="100%" viewBox="0 0 2000 1500" enable-background="new 0 0 2000 1500" xml:space="preserve">
<path fill="#000000" opacity="1.000000" stroke="none" 
	d="
M1441.000000,1501.000000 
	C960.666809,1501.000000 480.833618,1501.000000 1.000322,1501.000000 
	C1.000215,1001.000305 1.000215,501.000580 1.000107,1.000657 
	C667.666199,1.000438 1334.332397,1.000438 2000.998901,1.000219 
	C2000.999268,500.999359 2000.999268,1000.998718 2000.999634,1500.999023 
	C1814.500000,1501.000000 1628.000000,1501.000000 1441.000000,1501.000000 
M993.923401,1248.969238 
	C1006.969421,1248.393433 1020.015381,1247.817749 1033.961792,1247.334351 
	C1047.305908,1245.217285 1060.650146,1243.100098 1074.809692,1241.027588 
	C1086.868652,1237.630127 1098.927612,1234.232788 1111.718872,1230.789185 
	C1122.482910,1226.204956 1133.247070,1221.620605 1144.727661,1216.940430 
	C1156.867065,1209.762085 1169.006348,1202.583740 1181.802856,1195.146484 
	C1190.812256,1188.084595 1199.978516,1181.210693 1208.762329,1173.878662 
	C1212.909790,1170.416748 1216.324585,1166.077026 1220.677612,1161.829102 
	C1234.554932,1149.574463 1245.351929,1134.829468 1255.631104,1118.799072 
	C1273.067871,1091.653320 1285.191772,1062.272827 1292.970825,1030.995850 
	C1300.476807,1000.816101 1301.727173,970.144287 1301.042725,939.255615 
	C1300.285278,905.069092 1295.231689,871.624634 1283.889526,839.295593 
	C1277.198730,820.224792 1268.592651,802.062866 1256.074463,785.181030 
	C1245.356323,770.551208 1233.500732,756.993347 1218.816528,745.257751 
	C1206.207642,735.514587 1193.598877,725.771423 1180.572388,715.499756 
	C1168.718872,708.326294 1156.865356,701.152832 1144.534424,693.464050 
	C1143.192261,692.882019 1141.811646,692.374268 1140.513794,691.706238 
	C1129.381226,685.975403 1118.263550,680.215576 1106.584106,674.104980 
	C1093.762207,668.576172 1080.940430,663.047424 1067.526978,657.166382 
	C1066.472290,656.774963 1065.403320,656.417786 1064.365112,655.986694 
	C1053.238647,651.367249 1042.117188,646.736206 1030.312988,641.874268 
	C1017.566528,635.525391 1004.820129,629.176453 991.651917,622.307800 
	C974.532837,612.535156 958.161560,601.739441 943.910034,587.051453 
	C941.792725,584.484314 939.562439,582.001526 937.575500,579.337097 
	C916.735107,551.391357 911.491821,519.652771 914.906860,485.815247 
	C917.636597,458.768219 927.684509,435.034912 947.257324,415.021271 
	C962.009949,400.477478 979.952148,392.119568 1000.813843,387.870331 
	C1016.839661,387.366577 1032.865479,386.862854 1049.616577,386.672791 
	C1065.377319,390.261658 1081.137939,393.850494 1097.456665,397.827667 
	C1111.268066,404.573029 1125.079346,411.318420 1139.311890,418.597992 
	C1152.140991,427.635193 1164.970093,436.672424 1178.182251,446.193573 
	C1184.597534,451.634338 1191.012939,457.075134 1197.945801,462.954895 
	C1206.090942,453.403961 1214.012939,444.114502 1222.475464,434.457397 
	C1241.358276,412.730194 1260.240967,391.002991 1279.402344,368.955231 
	C1275.499268,364.875702 1272.216919,360.868622 1268.363525,357.518433 
	C1252.679077,343.882507 1236.819458,330.447906 1220.634888,316.399628 
	C1214.494263,312.160309 1208.527832,307.635376 1202.168579,303.754272 
	C1194.280029,298.939850 1186.066162,294.658569 1177.378540,289.820374 
	C1165.247070,284.309906 1153.115479,278.799469 1140.303101,272.976105 
	C1125.870728,268.982086 1111.438232,264.988068 1096.321655,260.622375 
	C1080.544189,258.462433 1064.766602,256.302521 1048.134155,253.969238 
	C1032.086060,253.702988 1016.038086,253.436752 999.081543,253.052185 
	C989.356628,253.860626 979.591614,254.351898 969.918884,255.573685 
	C961.559326,256.629639 953.304504,258.515656 944.203064,260.008942 
	C928.125488,264.973694 912.047974,269.938477 895.228333,274.968506 
	C882.041870,281.583771 868.855347,288.199005 854.991272,294.924713 
	C842.237183,304.241425 829.483093,313.558167 816.113892,323.112793 
	C802.507812,335.006470 790.090759,347.981812 779.306641,363.308441 
	C751.722717,400.444092 736.481750,442.493011 732.371460,488.180481 
	C730.524231,508.713715 732.047241,529.643250 733.211670,550.327087 
	C734.287415,569.433899 738.929810,588.042358 745.053833,606.179871 
	C753.248535,630.450073 764.657593,653.053772 781.036194,673.736389 
	C792.985657,686.172424 804.935120,698.608521 817.202393,711.640686 
	C830.442200,721.500916 843.681946,731.361145 857.309082,741.759033 
	C870.164551,749.308228 883.020020,756.857422 896.321472,764.893921 
	C911.848450,772.394226 927.375427,779.894470 943.412537,787.835083 
	C959.264587,794.267883 975.116577,800.700684 991.450134,807.631348 
	C1003.925049,813.444092 1016.399963,819.256897 1029.318237,825.597290 
	C1041.525879,833.405090 1053.733521,841.212830 1066.294800,849.591431 
	C1083.788574,863.258606 1096.531372,880.572754 1105.683594,901.437195 
	C1106.808350,904.559937 1107.983887,907.665466 1109.049561,910.808228 
	C1115.865479,930.908508 1117.366577,951.636414 1117.120117,972.721802 
	C1116.895020,991.996643 1114.182983,1010.729797 1107.964600,1029.732910 
	C1100.893188,1050.802612 1088.942017,1068.709229 1072.222046,1084.175781 
	C1060.595703,1094.250488 1047.279053,1101.343750 1032.085205,1106.662720 
	C1019.030273,1109.027100 1005.975403,1111.391479 992.000732,1113.630005 
	C978.997314,1113.111084 965.993958,1112.592163 952.228455,1111.821899 
	C937.482544,1108.259277 922.736694,1104.696655 907.372498,1100.766724 
	C904.616150,1099.640625 901.750427,1098.724365 899.121643,1097.353638 
	C884.756226,1089.862671 870.448975,1082.260132 855.694214,1074.160522 
	C853.318542,1072.788696 850.776489,1071.639526 848.594055,1070.009033 
	C834.007263,1059.110840 819.497009,1048.110107 804.576355,1036.588379 
	C799.082886,1031.924927 793.589355,1027.261353 787.819214,1022.363037 
	C779.301819,1031.875000 771.161560,1040.965698 762.428223,1050.355469 
	C741.462708,1073.259521 720.497192,1096.163696 699.327148,1119.291260 
	C719.114136,1139.880859 739.159302,1159.013062 762.322083,1175.627197 
	C776.166687,1184.524048 790.011292,1193.420776 804.287048,1202.828735 
	C821.139221,1210.700073 837.991333,1218.571533 855.411560,1226.848389 
	C858.375000,1227.888794 861.282593,1229.143433 864.311401,1229.932861 
	C878.847473,1233.721069 893.416321,1237.383667 908.615662,1241.510498 
	C923.399231,1243.495728 938.182800,1245.480957 953.814087,1247.743042 
	C966.873962,1248.107056 979.933777,1248.471069 993.923401,1248.969238 
z"/>
<path fill="#C20757" opacity="1.000000" stroke="none" 
	d="
M895.970459,274.903259 
	C912.047974,269.938477 928.125488,264.973694 944.602295,260.488281 
	C945.001221,309.563660 944.971802,358.159729 945.074097,406.755524 
	C945.080139,409.623230 946.147339,412.488708 946.720703,415.355225 
	C927.684509,435.034912 917.636597,458.768219 914.906860,485.815247 
	C911.491821,519.652771 916.735107,551.391357 937.575500,579.337097 
	C939.562439,582.001526 941.792725,584.484314 943.935791,587.710815 
	C943.974304,591.681946 943.997864,594.993774 943.997986,598.305603 
	C944.000122,658.041565 944.016907,717.777527 943.952759,777.513428 
	C943.949219,780.807617 943.268188,784.101013 942.902466,787.394775 
	C927.375427,779.894470 911.848450,772.394226 896.140381,764.199097 
	C896.306152,758.531738 896.954468,753.559326 896.956177,748.586670 
	C897.009888,597.332031 897.013000,446.077332 896.956360,294.822693 
	C896.953857,288.182739 896.313660,281.543060 895.970459,274.903259 
z"/>
<path fill="#90035E" opacity="1.000000" stroke="none" 
	d="
M1145.011841,693.979370 
	C1156.865356,701.152832 1168.718872,708.326294 1180.782227,716.230835 
	C1180.994629,872.944275 1180.996338,1028.926636 1181.006104,1184.909058 
	C1181.006348,1188.407837 1181.097046,1191.906616 1181.145630,1195.405518 
	C1169.006348,1202.583740 1156.867065,1209.762085 1144.367554,1216.517334 
	C1144.005005,1045.356079 1143.997070,874.617798 1144.042480,703.879517 
	C1144.043335,700.579407 1144.674683,697.279419 1145.011841,693.979370 
z"/>
<path fill="#97035D" opacity="1.000000" stroke="none" 
	d="
M1144.773193,693.721680 
	C1144.674683,697.279419 1144.043335,700.579407 1144.042480,703.879517 
	C1143.997070,874.617798 1144.005005,1045.356079 1144.009277,1216.565308 
	C1133.247070,1221.620605 1122.482910,1226.204956 1111.298096,1230.406006 
	C1110.584839,1226.385254 1110.040771,1222.748047 1110.037598,1219.110229 
	C1109.984863,1158.385620 1110.022705,1097.661133 1109.921753,1036.936646 
	C1109.917358,1034.293945 1108.777466,1031.653198 1108.166504,1029.011475 
	C1114.182983,1010.729797 1116.895020,991.996643 1117.120117,972.721802 
	C1117.366577,951.636414 1115.865479,930.908508 1109.049561,910.808228 
	C1107.983887,907.665466 1106.808350,904.559937 1105.817383,900.648560 
	C1106.300781,896.910889 1106.947510,893.962463 1106.954224,891.012573 
	C1107.026978,858.746399 1106.981934,826.479980 1107.004639,794.213623 
	C1107.032715,754.297241 1107.094360,714.380798 1107.141602,674.464417 
	C1118.263550,680.215576 1129.381226,685.975403 1140.513794,691.706238 
	C1141.811646,692.374268 1143.192261,692.882019 1144.773193,693.721680 
z"/>
<path fill="#CB0856" opacity="1.000000" stroke="none" 
	d="
M895.599365,274.935883 
	C896.313660,281.543060 896.953857,288.182739 896.956360,294.822693 
	C897.013000,446.077332 897.009888,597.332031 896.956177,748.586670 
	C896.954468,753.559326 896.306152,758.531738 895.917358,763.955444 
	C883.020020,756.857422 870.164551,749.308228 857.216431,741.069336 
	C857.415894,736.741516 857.961975,733.103394 857.963318,729.465149 
	C858.007568,606.369629 858.000061,483.274048 857.999817,360.178497 
	C857.999756,341.189484 858.092651,322.199432 857.892761,303.212524 
	C857.863281,300.405609 856.444763,297.613312 855.668884,294.814270 
	C868.855347,288.199005 882.041870,281.583771 895.599365,274.935883 
z"/>
<path fill="#88025F" opacity="1.000000" stroke="none" 
	d="
M1181.474243,1195.275879 
	C1181.097046,1191.906616 1181.006348,1188.407837 1181.006104,1184.909058 
	C1180.996338,1028.926636 1180.994629,872.944275 1180.990967,716.495117 
	C1193.598877,725.771423 1206.207642,735.514587 1218.923340,746.047852 
	C1219.020996,882.815796 1219.006470,1018.793701 1219.047485,1154.771606 
	C1219.048218,1157.226196 1219.715088,1159.680542 1220.071289,1162.135010 
	C1216.324585,1166.077026 1212.909790,1170.416748 1208.762329,1173.878662 
	C1199.978516,1181.210693 1190.812256,1188.084595 1181.474243,1195.275879 
z"/>
<path fill="#D30855" opacity="1.000000" stroke="none" 
	d="
M855.330078,294.869507 
	C856.444763,297.613312 857.863281,300.405609 857.892761,303.212524 
	C858.092651,322.199432 857.999756,341.189484 857.999817,360.178497 
	C858.000061,483.274048 858.007568,606.369629 857.963318,729.465149 
	C857.961975,733.103394 857.415894,736.741516 857.022766,740.800537 
	C843.681946,731.361145 830.442200,721.500916 817.348511,711.107178 
	C817.996338,707.878296 818.935486,705.183167 818.937073,702.487488 
	C819.009460,579.054260 819.000000,455.620972 818.997437,332.187683 
	C818.997375,330.688812 819.237610,329.118530 818.872314,327.709503 
	C818.435730,326.025909 817.467163,324.480255 816.729004,322.874878 
	C829.483093,313.558167 842.237183,304.241425 855.330078,294.869507 
z"/>
<path fill="#800160" opacity="1.000000" stroke="none" 
	d="
M1220.374512,1161.982056 
	C1219.715088,1159.680542 1219.048218,1157.226196 1219.047485,1154.771606 
	C1219.006470,1018.793701 1219.020996,882.815796 1219.037598,746.361755 
	C1233.500732,756.993347 1245.356323,770.551208 1255.939209,785.805298 
	C1255.203247,789.293518 1254.079590,792.156982 1254.077148,795.021362 
	C1253.987305,899.966248 1253.991943,1004.911133 1254.047852,1109.856079 
	C1254.049561,1112.984863 1254.738525,1116.113525 1255.107056,1119.242188 
	C1245.351929,1134.829468 1234.554932,1149.574463 1220.374512,1161.982056 
z"/>
<path fill="#DB0954" opacity="1.000000" stroke="none" 
	d="
M816.421448,322.993835 
	C817.467163,324.480255 818.435730,326.025909 818.872314,327.709503 
	C819.237610,329.118530 818.997375,330.688812 818.997437,332.187683 
	C819.000000,455.620972 819.009460,579.054260 818.937073,702.487488 
	C818.935486,705.183167 817.996338,707.878296 817.189575,710.809082 
	C804.935120,698.608521 792.985657,686.172424 781.179932,673.106384 
	C781.881958,669.597290 782.925781,666.718567 782.928284,663.838989 
	C783.013062,566.423401 782.999146,469.007721 782.996460,371.592041 
	C782.996460,370.260254 783.318726,368.780243 782.848999,367.631775 
	C782.160522,365.948334 780.891663,364.502319 779.870117,362.955139 
	C790.090759,347.981812 802.507812,335.006470 816.421448,322.993835 
z"/>
<path fill="#E30A52" opacity="1.000000" stroke="none" 
	d="
M779.588379,363.131775 
	C780.891663,364.502319 782.160522,365.948334 782.848999,367.631775 
	C783.318726,368.780243 782.996460,370.260254 782.996460,371.592041 
	C782.999146,469.007721 783.013062,566.423401 782.928284,663.838989 
	C782.925781,666.718567 781.881958,669.597290 781.076477,672.780273 
	C764.657593,653.053772 753.248535,630.450073 745.053833,606.179871 
	C738.929810,588.042358 734.287415,569.433899 733.211670,550.327087 
	C732.047241,529.643250 730.524231,508.713715 732.371460,488.180481 
	C736.481750,442.493011 751.722717,400.444092 779.588379,363.131775 
z"/>
<path fill="#780161" opacity="1.000000" stroke="none" 
	d="
M1255.369141,1119.020630 
	C1254.738525,1116.113525 1254.049561,1112.984863 1254.047852,1109.856079 
	C1253.991943,1004.911133 1253.987305,899.966248 1254.077148,795.021362 
	C1254.079590,792.156982 1255.203247,789.293518 1256.070190,786.125610 
	C1268.592651,802.062866 1277.198730,820.224792 1283.889526,839.295593 
	C1295.231689,871.624634 1300.285278,905.069092 1301.042725,939.255615 
	C1301.727173,970.144287 1300.476807,1000.816101 1292.970825,1030.995850 
	C1285.191772,1062.272827 1273.067871,1091.653320 1255.369141,1119.020630 
z"/>
<path fill="#B70658" opacity="1.000000" stroke="none" 
	d="
M943.157471,787.614929 
	C943.268188,784.101013 943.949219,780.807617 943.952759,777.513428 
	C944.016907,717.777527 944.000122,658.041565 943.997986,598.305603 
	C943.997864,594.993774 943.974304,591.681946 944.086060,588.001343 
	C958.161560,601.739441 974.532837,612.535156 991.799927,622.995361 
	C991.632080,627.315308 991.045166,630.947327 991.040833,634.580017 
	C990.972595,692.097778 990.979126,749.615662 990.968567,807.133484 
	C975.116577,800.700684 959.264587,794.267883 943.157471,787.614929 
z"/>
<path fill="#D30855" opacity="1.000000" stroke="none" 
	d="
M804.961975,1037.142700 
	C819.497009,1048.110107 834.007263,1059.110840 848.594055,1070.009033 
	C850.776489,1071.639526 853.318542,1072.788696 855.888428,1074.916138 
	C856.055054,1122.645386 856.050415,1169.618896 855.950378,1216.592407 
	C855.943420,1219.876709 855.228943,1223.159546 854.843445,1226.442993 
	C837.991333,1218.571533 821.139221,1210.700073 804.223022,1202.162598 
	C804.440002,1199.194946 804.964661,1196.893799 804.966125,1194.592285 
	C804.999268,1142.109131 804.975281,1089.625854 804.961975,1037.142700 
z"/>
<path fill="#9F045C" opacity="1.000000" stroke="none" 
	d="
M1106.862793,674.284668 
	C1107.094360,714.380798 1107.032715,754.297241 1107.004639,794.213623 
	C1106.981934,826.479980 1107.026978,858.746399 1106.954224,891.012573 
	C1106.947510,893.962463 1106.300781,896.910889 1105.754517,900.299805 
	C1096.531372,880.572754 1083.788574,863.258606 1066.418213,849.069946 
	C1067.027588,846.012878 1067.933350,843.478088 1067.938232,840.941650 
	C1068.056641,779.800781 1068.078979,718.659668 1068.118530,657.518616 
	C1080.940430,663.047424 1093.762207,668.576172 1106.862793,674.284668 
z"/>
<path fill="#B70658" opacity="1.000000" stroke="none" 
	d="
M946.989014,415.188232 
	C946.147339,412.488708 945.080139,409.623230 945.074097,406.755524 
	C944.971802,358.159729 945.001221,309.563660 945.002441,260.501221 
	C953.304504,258.515656 961.559326,256.629639 969.918884,255.573685 
	C979.591614,254.351898 989.356628,253.860626 999.536987,253.569092 
	C999.992371,298.667389 999.992249,343.248749 999.992126,387.830139 
	C979.952148,392.119568 962.009949,400.477478 946.989014,415.188232 
z"/>
<path fill="#CB0856" opacity="1.000000" stroke="none" 
	d="
M855.127502,1226.645752 
	C855.228943,1223.159546 855.943420,1219.876709 855.950378,1216.592407 
	C856.050415,1169.618896 856.055054,1122.645386 856.102173,1075.183838 
	C870.448975,1082.260132 884.756226,1089.862671 899.121643,1097.353638 
	C901.750427,1098.724365 904.616150,1099.640625 907.682007,1101.410400 
	C907.985474,1148.399780 907.979492,1194.745239 907.973511,1241.090820 
	C893.416321,1237.383667 878.847473,1233.721069 864.311401,1229.932861 
	C861.282593,1229.143433 858.375000,1227.888794 855.127502,1226.645752 
z"/>
<path fill="#AF055A" opacity="1.000000" stroke="none" 
	d="
M991.209351,807.382446 
	C990.979126,749.615662 990.972595,692.097778 991.040833,634.580017 
	C991.045166,630.947327 991.632080,627.315308 992.010864,623.255249 
	C1004.820129,629.176453 1017.566528,635.525391 1030.654175,642.452881 
	C1030.996704,700.920227 1031.027466,758.809082 1030.908936,816.697571 
	C1030.903198,819.489685 1029.583008,822.278992 1028.874878,825.069641 
	C1016.399963,819.256897 1003.925049,813.444092 991.209351,807.382446 
z"/>
<path fill="#A7055B" opacity="1.000000" stroke="none" 
	d="
M1029.096558,825.333496 
	C1029.583008,822.278992 1030.903198,819.489685 1030.908936,816.697571 
	C1031.027466,758.809082 1030.996704,700.920227 1030.994873,642.569885 
	C1042.117188,646.736206 1053.238647,651.367249 1064.365112,655.986694 
	C1065.403320,656.417786 1066.472290,656.774963 1067.822754,657.342529 
	C1068.078979,718.659668 1068.056641,779.800781 1067.938232,840.941650 
	C1067.933350,843.478088 1067.027588,846.012878 1066.241333,848.784546 
	C1053.733521,841.212830 1041.525879,833.405090 1029.096558,825.333496 
z"/>
<path fill="#9F045C" opacity="1.000000" stroke="none" 
	d="
M1096.898682,397.439331 
	C1081.137939,393.850494 1065.377319,390.261658 1049.272095,386.023621 
	C1048.948120,341.630524 1048.968628,297.886536 1048.989136,254.142578 
	C1064.766602,256.302521 1080.544189,258.462433 1096.689209,261.233276 
	C1097.372192,265.482452 1097.955933,269.120270 1097.962280,272.759094 
	C1098.029053,311.025818 1098.030396,349.292694 1097.955322,387.559357 
	C1097.948853,390.853363 1097.266846,394.146057 1096.898682,397.439331 
z"/>
<path fill="#AF055A" opacity="1.000000" stroke="none" 
	d="
M1048.561646,254.055908 
	C1048.968628,297.886536 1048.948120,341.630524 1048.909424,385.866791 
	C1032.865479,386.862854 1016.839661,387.366577 1000.402954,387.850220 
	C999.992249,343.248749 999.992371,298.667389 999.991272,253.628265 
	C1016.038086,253.436752 1032.086060,253.702988 1048.561646,254.055908 
z"/>
<path fill="#DB0954" opacity="1.000000" stroke="none" 
	d="
M804.769165,1036.865479 
	C804.975281,1089.625854 804.999268,1142.109131 804.966125,1194.592285 
	C804.964661,1196.893799 804.440002,1199.194946 804.007446,1201.906982 
	C790.011292,1193.420776 776.166687,1184.524048 762.387207,1175.038330 
	C762.969543,1171.899780 763.930237,1169.351440 763.937195,1166.800537 
	C764.035217,1130.509399 764.024475,1094.218018 763.961914,1057.926758 
	C763.957397,1055.302734 763.348938,1052.679810 763.021301,1050.056396 
	C771.161560,1040.965698 779.301819,1031.875000 787.819214,1022.363037 
	C793.589355,1027.261353 799.082886,1031.924927 804.769165,1036.865479 
z"/>
<path fill="#88025F" opacity="1.000000" stroke="none" 
	d="
M1177.992798,290.147003 
	C1186.066162,294.658569 1194.280029,298.939850 1202.168579,303.754272 
	C1208.527832,307.635376 1214.494263,312.160309 1220.825195,317.142029 
	C1221.010620,353.904633 1220.983643,389.924896 1221.041138,425.945038 
	C1221.045898,428.905518 1221.623535,431.865051 1221.935059,434.825043 
	C1214.012939,444.114502 1206.090942,453.403961 1197.945801,462.954895 
	C1191.012939,457.075134 1184.597534,451.634338 1178.068481,445.483276 
	C1178.303101,440.973145 1178.947876,437.173767 1178.954468,433.373260 
	C1179.027100,391.932373 1179.042114,350.491180 1178.954956,309.050323 
	C1178.941772,302.748566 1178.328491,296.448090 1177.992798,290.147003 
z"/>
<path fill="#9F045C" opacity="1.000000" stroke="none" 
	d="
M1108.065552,1029.372192 
	C1108.777466,1031.653198 1109.917358,1034.293945 1109.921753,1036.936646 
	C1110.022705,1097.661133 1109.984863,1158.385620 1110.037598,1219.110229 
	C1110.040771,1222.748047 1110.584839,1226.385254 1110.931885,1230.429077 
	C1098.927612,1234.232788 1086.868652,1237.630127 1074.428833,1240.581543 
	C1074.360962,1237.329590 1074.943359,1234.523804 1074.946777,1231.717407 
	C1075.004272,1185.301025 1075.026978,1138.884399 1074.898071,1092.468384 
	C1074.890137,1089.618286 1073.555420,1086.771973 1072.837891,1083.923828 
	C1088.942017,1068.709229 1100.893188,1050.802612 1108.065552,1029.372192 
z"/>
<path fill="#A7055B" opacity="1.000000" stroke="none" 
	d="
M1072.530029,1084.049805 
	C1073.555420,1086.771973 1074.890137,1089.618286 1074.898071,1092.468384 
	C1075.026978,1138.884399 1075.004272,1185.301025 1074.946777,1231.717407 
	C1074.943359,1234.523804 1074.360962,1237.329590 1074.021118,1240.559326 
	C1060.650146,1243.100098 1047.305908,1245.217285 1033.502319,1246.803223 
	C1033.028564,1241.280029 1033.006836,1236.287964 1033.000977,1231.295776 
	C1032.952148,1189.694458 1032.906372,1148.093262 1032.859619,1106.491943 
	C1047.279053,1101.343750 1060.595703,1094.250488 1072.530029,1084.049805 
z"/>
<path fill="#C20757" opacity="1.000000" stroke="none" 
	d="
M908.294556,1241.300659 
	C907.979492,1194.745239 907.985474,1148.399780 907.991089,1101.594116 
	C922.736694,1104.696655 937.482544,1108.259277 952.610718,1112.411377 
	C952.984070,1157.822632 952.975220,1202.644409 952.966370,1247.466064 
	C938.182800,1245.480957 923.399231,1243.495728 908.294556,1241.300659 
z"/>
<path fill="#97035D" opacity="1.000000" stroke="none" 
	d="
M1097.177734,397.633514 
	C1097.266846,394.146057 1097.948853,390.853363 1097.955322,387.559357 
	C1098.030396,349.292694 1098.029053,311.025818 1097.962280,272.759094 
	C1097.955933,269.120270 1097.372192,265.482452 1097.031250,261.419098 
	C1111.438232,264.988068 1125.870728,268.982086 1140.542725,273.518860 
	C1140.521851,277.032776 1140.037842,280.003662 1140.034424,282.975128 
	C1139.984863,325.236481 1140.021118,367.497986 1139.952393,409.759277 
	C1139.947876,412.528015 1139.260376,415.295654 1138.890625,418.063812 
	C1125.079346,411.318420 1111.268066,404.573029 1097.177734,397.633514 
z"/>
<path fill="#90035E" opacity="1.000000" stroke="none" 
	d="
M1139.101318,418.330902 
	C1139.260376,415.295654 1139.947876,412.528015 1139.952393,409.759277 
	C1140.021118,367.497986 1139.984863,325.236481 1140.034424,282.975128 
	C1140.037842,280.003662 1140.521851,277.032776 1140.883179,273.675293 
	C1153.115479,278.799469 1165.247070,284.309906 1177.685669,289.983704 
	C1178.328491,296.448090 1178.941772,302.748566 1178.954956,309.050323 
	C1179.042114,350.491180 1179.027100,391.932373 1178.954468,433.373260 
	C1178.947876,437.173767 1178.303101,440.973145 1177.876953,445.241333 
	C1164.970093,436.672424 1152.140991,427.635193 1139.101318,418.330902 
z"/>
<path fill="#AF055A" opacity="1.000000" stroke="none" 
	d="
M1032.472412,1106.577393 
	C1032.906372,1148.093262 1032.952148,1189.694458 1033.000977,1231.295776 
	C1033.006836,1236.287964 1033.028564,1241.280029 1033.052124,1246.757080 
	C1020.015381,1247.817749 1006.969421,1248.393433 993.459534,1248.444092 
	C992.970642,1203.197876 992.945557,1158.476929 992.920471,1113.755859 
	C1005.975403,1111.391479 1019.030273,1109.027100 1032.472412,1106.577393 
z"/>
<path fill="#B70658" opacity="1.000000" stroke="none" 
	d="
M992.460571,1113.692871 
	C992.945557,1158.476929 992.970642,1203.197876 992.994629,1248.377075 
	C979.933777,1248.471069 966.873962,1248.107056 953.390259,1247.604492 
	C952.975220,1202.644409 952.984070,1157.822632 952.991699,1112.537109 
	C965.993958,1112.592163 978.997314,1113.111084 992.460571,1113.692871 
z"/>
<path fill="#E30A52" opacity="1.000000" stroke="none" 
	d="
M762.724731,1050.205933 
	C763.348938,1052.679810 763.957397,1055.302734 763.961914,1057.926758 
	C764.024475,1094.218018 764.035217,1130.509399 763.937195,1166.800537 
	C763.930237,1169.351440 762.969543,1171.899780 762.213074,1174.752930 
	C739.159302,1159.013062 719.114136,1139.880859 699.327148,1119.291260 
	C720.497192,1096.163696 741.462708,1073.259521 762.724731,1050.205933 
z"/>
<path fill="#800160" opacity="1.000000" stroke="none" 
	d="
M1222.205322,434.641235 
	C1221.623535,431.865051 1221.045898,428.905518 1221.041138,425.945038 
	C1220.983643,389.924896 1221.010620,353.904633 1221.020020,317.411743 
	C1236.819458,330.447906 1252.679077,343.882507 1268.363525,357.518433 
	C1272.216919,360.868622 1275.499268,364.875702 1279.402344,368.955231 
	C1260.240967,391.002991 1241.358276,412.730194 1222.205322,434.641235 
z"/>
</svg>